<svg id="Layer_1" data-name="Layer 1" xmlns="http://www.w3.org/2000/svg" xmlns:xlink="http://www.w3.org/1999/xlink" viewBox="0 0 65 65"><defs><style>.cls-1{fill:url(#radial-gradient);}.cls-2{fill:#fff;}</style><radialGradient id="radial-gradient" cx="20.04" cy="60.67" fx="13.361699579588045" fy="52.61988990494773" r="65.81" gradientTransform="translate(-38.09 137.2) rotate(-130.75) scale(1 1.55)" gradientUnits="userSpaceOnUse"><stop offset="0" stop-color="#f9ed32"/><stop offset="0.5" stop-color="#ee2a7b"/><stop offset="1" stop-color="#002aff"/></radialGradient></defs><title>insta-icon</title><rect class="cls-1" width="65" height="65" rx="10" ry="10"/><path class="cls-2" d="M42.63,12.58a9.8,9.8,0,0,1,9.79,9.79V42.63a9.8,9.8,0,0,1-9.79,9.79H22.38a9.8,9.8,0,0,1-9.79-9.79V22.38a9.8,9.8,0,0,1,9.79-9.79H42.63m0-4H22.38A13.83,13.83,0,0,0,8.58,22.38V42.63A13.83,13.83,0,0,0,22.38,56.42H42.63A13.83,13.83,0,0,0,56.42,42.63V22.38A13.83,13.83,0,0,0,42.63,8.58Z"/><path class="cls-2" d="M32.5,23.39a9.11,9.11,0,1,1-9.11,9.11,9.12,9.12,0,0,1,9.11-9.11m0-3h0A12.15,12.15,0,0,0,20.39,32.5h0A12.15,12.15,0,0,0,32.5,44.61h0A12.15,12.15,0,0,0,44.61,32.5h0A12.15,12.15,0,0,0,32.5,20.39Z"/><circle class="cls-2" cx="45.58" cy="19.49" r="3.32"/></svg>